<svg width="19" height="23" viewBox="0 0 19 23" fill="none" xmlns="http://www.w3.org/2000/svg">
<path d="M12.9499 4.31683C11.0999 4.31683 11.0999 4.9335 9.24995 4.9335C7.39996 4.9335 7.39996 4.31683 5.54997 4.31683C3.08332 4.31683 0 5.55016 0 9.86681C0 16.6501 3.69998 22.2001 6.16664 22.2001C8.01663 22.2001 8.01663 21.5834 9.24995 21.5834C10.4833 21.5834 10.4833 22.2001 12.3333 22.2001C14.7999 22.2001 18.4999 16.6501 18.4999 9.86681C18.4999 5.54954 15.4166 4.31683 12.9499 4.31683Z" fill="#46BD91"/>
<path d="M9.86682 4.31693C9.86682 4.31693 11.7168 1.85028 14.8001 1.85028C17.2668 1.85028 18.5001 3.08361 18.5001 3.08361C18.5001 3.08361 16.0335 4.9336 14.1835 4.9336C12.3335 4.9336 9.86682 4.31693 9.86682 4.31693Z" fill="#574C9E"/>
<path d="M9.25009 6.16679C8.90969 6.16679 8.63342 5.89052 8.63342 5.55013C8.63342 3.42819 9.37342 1.4709 10.6641 0.180837C10.9052 -0.0602789 11.2949 -0.0602789 11.5361 0.180837C11.7772 0.421952 11.7772 0.8123 11.5361 1.0528C10.4748 2.11346 9.86675 3.75255 9.86675 5.55013C9.86675 5.89052 9.59048 6.16679 9.25009 6.16679Z" fill="#2C363A"/>
</svg>
