<svg width="24" height="25" viewBox="0 0 24 25" fill="none" xmlns="http://www.w3.org/2000/svg">
<path d="M14.8318 3.0467C14.8472 3.05137 14.8609 3.05557 14.873 3.05932C16.4643 3.55352 17.8891 4.44768 19.0387 5.62928C19.0524 5.64339 19.0689 5.66045 19.088 5.68047L19.0879 5.68051C19.1479 5.74329 19.1605 5.8376 19.1191 5.91392C19.101 5.94742 19.0862 5.97569 19.0748 5.99873C18.625 6.90743 18.6156 8.02708 19.1447 8.97755C19.6557 9.89547 20.5495 10.4412 21.4962 10.5231C21.5154 10.5247 21.5385 10.5263 21.5653 10.5277L21.5653 10.5278C21.6549 10.5326 21.7303 10.5965 21.7497 10.684C21.7591 10.726 21.7667 10.7612 21.7726 10.7894C21.9217 11.5005 22 12.2391 22 12.9966C22 13.9555 21.8745 14.884 21.6397 15.7655C21.6336 15.7881 21.6261 15.8159 21.6169 15.8488L21.617 15.8489C21.5948 15.9286 21.5259 15.9865 21.4436 15.9945C21.4287 15.9959 21.4155 15.9973 21.4041 15.9987C20.4916 16.1065 19.639 16.6462 19.1447 17.5342C18.6845 18.3609 18.6317 19.3155 18.9216 20.1482C18.9323 20.179 18.9471 20.2182 18.9661 20.2659L18.9662 20.2658C18.9957 20.3401 18.9782 20.4248 18.9217 20.4813C18.8933 20.5097 18.8696 20.5332 18.8506 20.5517C17.7147 21.6607 16.3279 22.4971 14.788 22.9598C14.7269 22.9781 14.643 23.0019 14.5364 23.0309L14.5364 23.0309C14.4586 23.0521 14.3757 23.0245 14.3261 22.9609C14.2894 22.9139 14.259 22.8764 14.2347 22.8483C13.6853 22.2123 12.8877 21.8125 12 21.8125C11.1394 21.8125 10.3635 22.1883 9.81645 22.7903C9.77956 22.8309 9.73219 22.8879 9.67434 22.9614L9.67431 22.9613C9.62466 23.0244 9.54213 23.0516 9.4647 23.0306C9.35498 23.0007 9.2688 22.9763 9.20614 22.9575C7.66412 22.4935 6.27592 21.6545 5.13906 20.5421C5.1225 20.5259 5.10212 20.5057 5.07793 20.4816L5.07791 20.4816C5.02127 20.425 5.00382 20.3401 5.03358 20.2657C5.048 20.2297 5.05955 20.1996 5.06824 20.1754C5.36944 19.3365 5.32052 18.3699 4.85529 17.5342C4.3895 16.6974 3.60558 16.1699 2.75348 16.0212C2.70445 16.0126 2.63857 16.0041 2.55585 15.9955L2.55586 15.9954C2.47412 15.9869 2.40591 15.9292 2.3839 15.8501C2.37328 15.8118 2.36457 15.7799 2.35777 15.7544C2.12447 14.8766 2 13.9516 2 12.9966C2 12.2027 2.086 11.4297 2.24885 10.6869C2.24903 10.6861 2.24922 10.6853 2.2494 10.6844L2.24942 10.6844C2.26871 10.5966 2.34421 10.5325 2.43397 10.5277C2.45327 10.5266 2.47019 10.5255 2.48471 10.5244C3.43876 10.4483 4.34097 9.90149 4.85529 8.97755C5.35804 8.0744 5.37462 7.0185 4.98926 6.13583C4.96481 6.07983 4.92816 6.00586 4.87932 5.91392L4.87932 5.91393C4.83879 5.83763 4.85183 5.74394 4.91165 5.68161C4.97987 5.61052 5.03465 5.5544 5.07597 5.51326C6.16324 4.43078 7.48612 3.60065 8.95686 3.11389C9.0099 3.09634 9.08067 3.07407 9.16914 3.0471L9.16914 3.04707C9.25949 3.01952 9.3568 3.05894 9.40252 3.1416C9.44165 3.21236 9.47457 3.26855 9.50129 3.31016C10.039 4.14764 10.9574 4.69924 12 4.69924C13.0887 4.69924 14.0419 4.09778 14.5677 3.19775C14.5735 3.18787 14.5835 3.16969 14.5977 3.14321L14.5978 3.14321C14.6429 3.05948 14.7408 3.01912 14.8318 3.0467ZM15.1459 4.92553C14.3219 5.76105 13.2024 6.25499 12 6.25499C10.8112 6.25499 9.70493 5.77216 8.88489 4.95637L8.8566 4.92728C8.80505 4.87426 8.72613 4.85853 8.65818 4.88772C7.96614 5.19499 7.31688 5.5968 6.72706 6.08139L6.69336 6.10981C6.63474 6.15926 6.60956 6.23788 6.62854 6.31219L6.6288 6.31318C6.88628 7.4051 6.76028 8.5781 6.23247 9.60912L6.15433 9.75542C5.59605 10.7583 4.7174 11.4849 3.70428 11.8414C3.70046 11.8427 3.69487 11.8446 3.68752 11.8471L3.68752 11.8471C3.61357 11.8718 3.5607 11.9371 3.55206 12.0146C3.55124 12.0219 3.55059 12.0279 3.5501 12.0326C3.52597 12.2632 3.5105 12.4956 3.50381 12.7295L3.5 12.9966C3.5 13.4806 3.53748 13.9588 3.61129 14.4279L3.6298 14.5361C3.64196 14.607 3.69119 14.6659 3.75877 14.6904C3.79843 14.7047 3.82936 14.7163 3.85154 14.725C4.75774 15.0807 5.54445 15.7362 6.07549 16.62L6.15433 16.7563C6.67176 17.6858 6.85475 18.7462 6.70972 19.7671C6.70958 19.7682 6.7094 19.7694 6.70919 19.7708H6.70919C6.69885 19.8404 6.72583 19.9103 6.78023 19.9549C6.78978 19.9627 6.79638 19.9681 6.80004 19.971C7.46799 20.5077 8.20933 20.9386 9.0006 21.248C9.009 21.2513 9.02497 21.2573 9.04852 21.2662L9.04852 21.2661C9.11509 21.2911 9.18988 21.2788 9.24498 21.2339C9.27035 21.2132 9.28727 21.1996 9.29575 21.193C10.0219 20.6262 10.9074 20.2924 11.8464 20.2594L12 20.2567C13.0273 20.2567 13.9981 20.6172 14.7763 21.2505L14.7813 21.2547C14.8195 21.2867 14.8718 21.2961 14.9189 21.2794C15.7333 20.9705 16.4959 20.5335 17.1814 19.9857C17.1879 19.9805 17.2009 19.9699 17.2202 19.9541L17.2202 19.9541C17.2746 19.9095 17.3015 19.8396 17.2912 19.7701C17.2851 19.7289 17.2812 19.7021 17.2797 19.6896C17.1612 18.7446 17.3227 17.7697 17.7693 16.8992L17.8457 16.7563C18.3811 15.7945 19.2119 15.0854 20.1756 14.7147L20.2406 14.6913C20.3082 14.6669 20.3576 14.6081 20.3698 14.5373L20.3888 14.4281C20.4478 14.0526 20.4836 13.6714 20.4955 13.2862L20.5 12.9966C20.5 12.6669 20.4826 12.3401 20.4482 12.017C20.4481 12.0166 20.4481 12.0161 20.448 12.0156L20.448 12.0156C20.4397 11.9382 20.3871 11.8726 20.3133 11.8477C20.3118 11.8471 20.3104 11.8467 20.3093 11.8463C19.3377 11.5079 18.4886 10.8295 17.9256 9.89355L17.8457 9.75542C17.2525 8.68991 17.1014 7.45688 17.3713 6.31298L17.3718 6.31118C17.3903 6.23711 17.365 6.15898 17.3066 6.10979L17.273 6.08149C16.6832 5.59685 16.0339 5.19501 15.3418 4.88773L15.3376 4.88593C15.2717 4.85785 15.1953 4.87364 15.1459 4.92553ZM12 9.36649C13.933 9.36649 15.5 10.9917 15.5 12.9966C15.5 15.0014 13.933 16.6266 12 16.6266C10.067 16.6266 8.5 15.0014 8.5 12.9966C8.5 10.9917 10.067 9.36649 12 9.36649ZM12 10.9222C10.8954 10.9222 10 11.8509 10 12.9966C10 14.1422 10.8954 15.0709 12 15.0709C13.1046 15.0709 14 14.1422 14 12.9966C14 11.8509 13.1046 10.9222 12 10.9222Z" fill="black"/>
</svg>
