<svg width="20" height="20" viewBox="0 0 20 20" fill="none" xmlns="http://www.w3.org/2000/svg">
<g clip-path="url(#clip0_242_1119)">
<path d="M7.3823 5.4165V7.9165H4.73524V5.4165H7.3823ZM8.70582 4.1665H3.41171V9.1665H8.70582V4.1665ZM7.3823 12.0832V14.5832H4.73524V12.0832H7.3823ZM8.70582 10.8332H3.41171V15.8332H8.70582V10.8332ZM14.4411 5.4165V7.9165H11.7941V5.4165H14.4411ZM15.7646 4.1665H10.4705V9.1665H15.7646V4.1665ZM10.4705 10.8332H11.7941V12.0832H10.4705V10.8332ZM11.7941 12.0832H13.1176V13.3332H11.7941V12.0832ZM13.1176 10.8332H14.4411V12.0832H13.1176V10.8332ZM10.4705 13.3332H11.7941V14.5832H10.4705V13.3332ZM11.7941 14.5832H13.1176V15.8332H11.7941V14.5832ZM13.1176 13.3332H14.4411V14.5832H13.1176V13.3332ZM14.4411 12.0832H15.7646V13.3332H14.4411V12.0832ZM14.4411 14.5832H15.7646V15.8332H14.4411V14.5832ZM18.4117 5.83317H16.647V3.33317H13.9999V1.6665H18.4117V5.83317ZM18.4117 18.3332V14.1665H16.647V16.6665H13.9999V18.3332H18.4117ZM0.764648 18.3332H5.17641V16.6665H2.52935V14.1665H0.764648V18.3332ZM0.764648 1.6665V5.83317H2.52935V3.33317H5.17641V1.6665H0.764648Z" fill="white"/>
</g>
<defs>
<clipPath id="clip0_242_1119">
<rect width="20" height="20" fill="white"/>
</clipPath>
</defs>
</svg>
