<svg width="14" height="14" viewBox="0 0 14 14" fill="none" xmlns="http://www.w3.org/2000/svg">
<path d="M12.4 6.39434C12.6765 6.756 12.6765 7.24426 12.4 7.60534C11.529 8.74226 9.43955 11.0832 7.00005 11.0832C4.56055 11.0832 2.47105 8.74226 1.60013 7.60534C1.4656 7.43217 1.39258 7.21912 1.39258 6.99984C1.39258 6.78055 1.4656 6.56751 1.60013 6.39434C2.47105 5.25742 4.56055 2.9165 7.00005 2.9165C9.43955 2.9165 11.529 5.25742 12.4 6.39434V6.39434Z" stroke="#7159BD" stroke-linecap="round" stroke-linejoin="round"/>
<path d="M7 8.75C7.9665 8.75 8.75 7.9665 8.75 7C8.75 6.0335 7.9665 5.25 7 5.25C6.0335 5.25 5.25 6.0335 5.25 7C5.25 7.9665 6.0335 8.75 7 8.75Z" stroke="#7159BD" stroke-linecap="round" stroke-linejoin="round"/>
</svg>
