<svg width="24" height="24" viewBox="0 0 24 24" fill="none" xmlns="http://www.w3.org/2000/svg">
<path d="M12 1C18.0751 1 23 5.92487 23 12C23 18.0751 18.0751 23 12 23C5.92487 23 1 18.0751 1 12C1 5.92487 5.92487 1 12 1ZM17.9101 8.5H16.3543C16.3013 8.5 16.2504 8.52107 16.2129 8.55857L10.6961 14.0746L8.17958 11.5582C8.14207 11.5207 8.0912 11.4996 8.03816 11.4996H6.4827C6.42967 11.4996 6.37881 11.5207 6.34131 11.5582C6.26319 11.6363 6.26316 11.7629 6.34125 11.841C6.42917 11.929 6.5171 12.0169 6.60502 12.1049C6.62887 12.1288 6.65325 12.1532 6.67813 12.1781L6.83305 12.3334C7.15375 12.655 7.53643 13.0404 7.92601 13.4333L8.21862 13.7286C9.12764 14.6461 9.99919 15.5287 10.1333 15.6643L10.1505 15.6816C10.4434 15.9745 10.9183 15.9745 11.2112 15.6816L18.0516 8.84142C18.0891 8.80392 18.1101 8.75304 18.1101 8.7C18.1101 8.58954 18.0206 8.5 17.9101 8.5Z" fill="#7159BD"/>
</svg>