<svg width="16" height="16" viewBox="0 0 16 16" fill="none" xmlns="http://www.w3.org/2000/svg">
<path d="M3.41431 3.38335C5.74471 1.09422 9.52305 1.09422 11.8535 3.38335C14.1051 5.59516 14.1812 9.13479 12.0816 11.4363L14.5697 13.8806C14.6222 13.9322 14.623 14.0166 14.5714 14.0691C14.5708 14.0697 14.5702 14.0703 14.5697 14.0708L14.0567 14.5747C14.0048 14.6257 13.9217 14.6257 13.8698 14.5747L11.359 12.1081C9.01602 13.9516 5.58629 13.8065 3.41431 11.673C1.0839 9.38389 1.0839 5.67248 3.41431 3.38335ZM4.11757 4.07415C2.17557 5.98176 2.17557 9.0746 4.11757 10.9822C6.05958 12.8898 9.20819 12.8898 11.1502 10.9822C13.0922 9.0746 13.0922 5.98176 11.1502 4.07415C9.20819 2.16655 6.05958 2.16655 4.11757 4.07415Z" fill="#CCCCCC"/>
</svg>
