<svg width="42" height="42" viewBox="0 0 42 42" fill="none" xmlns="http://www.w3.org/2000/svg">
<path d="M21 1.75C31.6315 1.75 40.25 10.3685 40.25 21C40.25 31.6315 31.6315 40.25 21 40.25C10.3685 40.25 1.75 31.6315 1.75 21C1.75 10.3685 10.3685 1.75 21 1.75ZM21.9625 27.125H20.0375C19.8442 27.125 19.6875 27.2817 19.6875 27.475V29.4C19.6875 29.5933 19.8442 29.75 20.0375 29.75H21.9625C22.1558 29.75 22.3125 29.5933 22.3125 29.4V27.475C22.3125 27.2817 22.1558 27.125 21.9625 27.125ZM21.9625 12.25H20.0375C19.8442 12.25 19.6875 12.4067 19.6875 12.6V24.15C19.6875 24.3433 19.8442 24.5 20.0375 24.5H21.9625C22.1558 24.5 22.3125 24.3433 22.3125 24.15V12.6C22.3125 12.4067 22.1558 12.25 21.9625 12.25Z" fill="#FF8F1F"/>
</svg>
