<svg width="42" height="42" viewBox="0 0 42 42" fill="none" xmlns="http://www.w3.org/2000/svg">
<path d="M21 1.75C31.6315 1.75 40.25 10.3685 40.25 21C40.25 31.6315 31.6315 40.25 21 40.25C10.3685 40.25 1.75 31.6315 1.75 21C1.75 10.3685 10.3685 1.75 21 1.75ZM31.3428 14.875H28.6201C28.5273 14.875 28.4383 14.9119 28.3726 14.9775L18.7182 24.6306L14.3143 20.2268C14.2486 20.1612 14.1596 20.1243 14.0668 20.1243H11.3447C11.2519 20.1243 11.1629 20.1612 11.0973 20.2268C10.9606 20.3634 10.9605 20.585 11.0972 20.7218C11.2511 20.8757 11.4049 21.0296 11.5588 21.1835C11.6005 21.2253 11.6432 21.268 11.6867 21.3116L11.9578 21.5834C12.5191 22.1463 13.1888 22.8207 13.8705 23.5083L14.3826 24.025C15.9734 25.6307 17.4986 27.1753 17.7333 27.4125L17.7634 27.4428C18.2759 27.9554 19.107 27.9554 19.6195 27.4428L31.5902 15.4725C31.6559 15.4069 31.6928 15.3178 31.6928 15.225C31.6928 15.0317 31.5361 14.875 31.3428 14.875Z" fill="#00BE7E"/>
</svg>
