<svg width="17" height="17" viewBox="0 0 17 17" fill="none" xmlns="http://www.w3.org/2000/svg">
<g clip-path="url(#clip0_288_1761)">
<path d="M16.0312 9.03143L10.7812 14.2814C10.3125 14.7502 9.5 14.4221 9.5 13.7502V10.7502H5.25C4.83437 10.7502 4.5 10.4158 4.5 10.0002V7.00018C4.5 6.58455 4.83437 6.25018 5.25 6.25018H9.5V3.25018C9.5 2.58143 10.3094 2.25018 10.7812 2.71893L16.0312 7.96893C16.3219 8.26268 16.3219 8.73768 16.0312 9.03143ZM6.5 14.1252V12.8752C6.5 12.6689 6.33125 12.5002 6.125 12.5002H3.5C2.94687 12.5002 2.5 12.0533 2.5 11.5002V5.50018C2.5 4.94705 2.94687 4.50018 3.5 4.50018H6.125C6.33125 4.50018 6.5 4.33143 6.5 4.12518V2.87518C6.5 2.66893 6.33125 2.50018 6.125 2.50018H3.5C1.84375 2.50018 0.5 3.84393 0.5 5.50018V11.5002C0.5 13.1564 1.84375 14.5002 3.5 14.5002H6.125C6.33125 14.5002 6.5 14.3314 6.5 14.1252Z" fill="#FF3141"/>
</g>
<defs>
<clipPath id="clip0_288_1761">
<rect width="16" height="16" fill="white" transform="translate(0.5 0.5)"/>
</clipPath>
</defs>
</svg>
