<svg width="42" height="42" viewBox="0 0 42 42" fill="none" xmlns="http://www.w3.org/2000/svg">
<path d="M21 1.75C31.6315 1.75 40.25 10.3685 40.25 21C40.25 31.6315 31.6315 40.25 21 40.25C10.3685 40.25 1.75 31.6315 1.75 21C1.75 10.3685 10.3685 1.75 21 1.75ZM16.341 14H13.6183C13.5255 14 13.4365 14.0369 13.3708 14.1025C13.2341 14.2392 13.2341 14.4608 13.3708 14.5975L19.5117 20.7381L12.8475 27.4025C12.7818 27.4682 12.745 27.5572 12.745 27.65C12.745 27.8433 12.9017 28 13.095 28H15.8159C15.9087 28 15.9977 27.9631 16.0634 27.8975L21.3676 22.594L26.6716 27.8975C26.7373 27.9631 26.8263 28 26.9191 28H29.6418C29.7346 28 29.8236 27.9631 29.8893 27.8975C30.026 27.7608 30.026 27.5392 29.8893 27.4025L23.2243 20.7372L29.3643 14.5975C29.4299 14.5319 29.4668 14.4428 29.4668 14.35C29.4668 14.1567 29.3101 14 29.1168 14H26.3933C26.3005 14 26.2114 14.0369 26.1458 14.1025L21.3676 18.8813L16.5884 14.1025C16.5228 14.0369 16.4338 14 16.341 14Z" fill="#FF3141"/>
</svg>
