<svg width="20" height="20" viewBox="0 0 20 20" fill="none" xmlns="http://www.w3.org/2000/svg">
<path d="M3.5415 13.3333C4.57704 13.3333 5.4165 14.1728 5.4165 15.2083C5.4165 16.2439 4.57704 17.0833 3.5415 17.0833C2.50597 17.0833 1.6665 16.2439 1.6665 15.2083C1.6665 14.1728 2.50597 13.3333 3.5415 13.3333ZM3.5415 14.5833C3.19633 14.5833 2.9165 14.8632 2.9165 15.2083C2.9165 15.5535 3.19633 15.8333 3.5415 15.8333C3.88668 15.8333 4.1665 15.5535 4.1665 15.2083C4.1665 14.8632 3.88668 14.5833 3.5415 14.5833ZM18.1665 14.5833C18.2586 14.5833 18.3332 14.658 18.3332 14.75V15.6667C18.3332 15.7587 18.2586 15.8333 18.1665 15.8333H6.83317C6.74112 15.8333 6.6665 15.7587 6.6665 15.6667V14.75C6.6665 14.658 6.74112 14.5833 6.83317 14.5833H18.1665ZM3.5415 7.91667C4.57704 7.91667 5.4165 8.75613 5.4165 9.79167C5.4165 10.8272 4.57704 11.6667 3.5415 11.6667C2.50597 11.6667 1.6665 10.8272 1.6665 9.79167C1.6665 8.75613 2.50597 7.91667 3.5415 7.91667ZM3.5415 9.16667C3.19633 9.16667 2.9165 9.44649 2.9165 9.79167C2.9165 10.1368 3.19633 10.4167 3.5415 10.4167C3.88668 10.4167 4.1665 10.1368 4.1665 9.79167C4.1665 9.44649 3.88668 9.16667 3.5415 9.16667ZM18.1665 9.16667C18.2586 9.16667 18.3332 9.24129 18.3332 9.33333V10.25C18.3332 10.342 18.2586 10.4167 18.1665 10.4167H6.83317C6.74112 10.4167 6.6665 10.342 6.6665 10.25V9.33333C6.6665 9.24129 6.74112 9.16667 6.83317 9.16667H18.1665ZM3.5415 2.5C4.57704 2.5 5.4165 3.33947 5.4165 4.375C5.4165 5.41053 4.57704 6.25 3.5415 6.25C2.50597 6.25 1.6665 5.41053 1.6665 4.375C1.6665 3.33947 2.50597 2.5 3.5415 2.5ZM3.5415 3.75C3.19633 3.75 2.9165 4.02982 2.9165 4.375C2.9165 4.72018 3.19633 5 3.5415 5C3.88668 5 4.1665 4.72018 4.1665 4.375C4.1665 4.02982 3.88668 3.75 3.5415 3.75ZM18.1665 3.75C18.2586 3.75 18.3332 3.82462 18.3332 3.91667V4.83333C18.3332 4.92538 18.2586 5 18.1665 5H6.83317C6.74112 5 6.6665 4.92538 6.6665 4.83333V3.91667C6.6665 3.82462 6.74112 3.75 6.83317 3.75H18.1665Z" fill="white"/>
</svg>
