<svg width="14" height="14" viewBox="0 0 14 14" fill="none" xmlns="http://www.w3.org/2000/svg">
<path d="M12.8818 6.64729C12.4012 5.63475 11.8292 4.80897 11.166 4.16995L10.4703 4.86557C11.0376 5.40766 11.5317 6.11682 11.9589 7.00003C10.8214 9.35432 9.20678 10.4727 7.00014 10.4727C6.33778 10.4727 5.7277 10.3707 5.16989 10.1667L4.41616 10.9204C5.1909 11.2782 6.05222 11.4571 7.00014 11.4571C9.62787 11.4571 11.5884 10.0885 12.8818 7.3514C12.9338 7.24132 12.9607 7.12109 12.9607 6.99934C12.9607 6.8776 12.9338 6.75737 12.8818 6.64729V6.64729ZM12.0127 2.26354L11.4298 1.68003C11.4197 1.66986 11.4076 1.66179 11.3943 1.65629C11.3811 1.65078 11.3668 1.64795 11.3524 1.64795C11.3381 1.64795 11.3238 1.65078 11.3106 1.65629C11.2973 1.66179 11.2852 1.66986 11.2751 1.68003L9.77977 3.17464C8.95536 2.75354 8.02881 2.543 7.00014 2.543C4.37241 2.543 2.41186 3.91155 1.1185 6.64866C1.06651 6.75874 1.03955 6.87897 1.03955 7.00071C1.03955 7.12245 1.06651 7.24268 1.1185 7.35276C1.63521 8.44104 2.25728 9.31335 2.98471 9.9697L1.53795 11.416C1.51746 11.4366 1.50594 11.4644 1.50594 11.4934C1.50594 11.5224 1.51746 11.5502 1.53795 11.5707L2.1216 12.1543C2.14211 12.1748 2.16992 12.1863 2.19892 12.1863C2.22791 12.1863 2.25572 12.1748 2.27623 12.1543L12.0127 2.41831C12.0228 2.40815 12.0309 2.39609 12.0364 2.38281C12.0419 2.36953 12.0447 2.3553 12.0447 2.34093C12.0447 2.32655 12.0419 2.31232 12.0364 2.29904C12.0309 2.28576 12.0228 2.2737 12.0127 2.26354ZM2.04135 7.00003C3.18022 4.64573 4.79487 3.52737 7.00014 3.52737C7.7458 3.52737 8.42379 3.65534 9.03889 3.91552L8.07776 4.87665C7.62258 4.63379 7.10139 4.54365 6.59108 4.61954C6.08078 4.69543 5.60838 4.93333 5.24357 5.29814C4.87876 5.66295 4.64086 6.13535 4.56497 6.64566C4.48908 7.15597 4.57921 7.67715 4.82207 8.13233L3.68157 9.27284C3.05034 8.71571 2.50619 7.96089 2.04135 7.00003ZM5.4142 7.00003C5.41444 6.75894 5.47155 6.52132 5.58088 6.30645C5.69021 6.09158 5.84868 5.90553 6.04342 5.76342C6.23817 5.6213 6.46369 5.52713 6.70166 5.48855C6.93964 5.44997 7.18336 5.46807 7.41303 5.54138L5.4868 7.46761C5.43852 7.31645 5.41403 7.15871 5.4142 7.00003V7.00003Z" fill="#7159BD"/>
<path d="M6.94529 8.53123C6.89799 8.53123 6.85137 8.52904 6.80516 8.52481L6.08301 9.24695C6.51735 9.41329 6.99058 9.45026 7.44548 9.35338C7.90038 9.2565 8.31748 9.02993 8.64636 8.70105C8.97524 8.37217 9.20181 7.95507 9.29869 7.50017C9.39557 7.04526 9.3586 6.57204 9.19227 6.1377L8.47012 6.85984C8.47436 6.90605 8.47654 6.95268 8.47654 6.99998C8.47665 7.2011 8.43712 7.40026 8.3602 7.58609C8.28329 7.77192 8.1705 7.94077 8.02829 8.08298C7.88608 8.22519 7.71723 8.33798 7.5314 8.41489C7.34558 8.49181 7.14641 8.53134 6.94529 8.53123V8.53123Z" fill="#7159BD"/>
</svg>
