<svg width="28" height="28" viewBox="0 0 28 28" fill="none" xmlns="http://www.w3.org/2000/svg">
<path d="M14 2C7.37321 2 2 7.37321 2 14C2 20.6268 7.37321 26 14 26C20.6268 26 26 20.6268 26 14C26 7.37321 20.6268 2 14 2ZM14 23.9643C8.49821 23.9643 4.03571 19.5018 4.03571 14C4.03571 8.49821 8.49821 4.03571 14 4.03571C19.5018 4.03571 23.9643 8.49821 23.9643 14C23.9643 19.5018 19.5018 23.9643 14 23.9643Z" fill="#FAAD14"/>
<path d="M12.7139 18.7143C12.7139 19.0553 12.8493 19.3823 13.0904 19.6234C13.3316 19.8645 13.6586 20 13.9996 20C14.3406 20 14.6676 19.8645 14.9087 19.6234C15.1498 19.3823 15.2853 19.0553 15.2853 18.7143C15.2853 18.3733 15.1498 18.0463 14.9087 17.8052C14.6676 17.564 14.3406 17.4286 13.9996 17.4286C13.6586 17.4286 13.3316 17.564 13.0904 17.8052C12.8493 18.0463 12.7139 18.3733 12.7139 18.7143ZM13.3567 15.7143H14.6424C14.7603 15.7143 14.8567 15.6179 14.8567 15.5V8.21429C14.8567 8.09643 14.7603 8 14.6424 8H13.3567C13.2389 8 13.1424 8.09643 13.1424 8.21429V15.5C13.1424 15.6179 13.2389 15.7143 13.3567 15.7143Z" fill="#FAAD14"/>
</svg>
